<svg height="800" width="800" xml:space="preserve" xmlns="http://www.w3.org/2000/svg"><defs><clipPath id="a" clipPathUnits="userSpaceOnUse"><path d="M0 800h1280V0H0Z"/></clipPath></defs><g transform="matrix(.59355 0 0 -.59355 -130.943 606.85)" clip-path="url(#a)"><path style="fill:#cedc21;fill-opacity:1;fill-rule:nonzero;stroke:none" d="M0 0a8.28 8.28 0 0 0-8.281 8.28v124.622a8.282 8.282 0 0 0 16.562 0V8.28A8.28 8.28 0 0 0 0 0" transform="translate(779.205 11.551) scale(4.7732)"/><path style="fill:#51b13e;fill-opacity:1;fill-rule:nonzero;stroke:none" d="M0 0a8.282 8.282 0 0 0-3.556 15.764l49.934 23.698-51.295 37.79a8.281 8.281 0 0 0-1.754 11.58 8.28 8.28 0 0 0 11.577 1.754l62.441-46.003a8.278 8.278 0 0 0-1.362-14.147L3.545.802A8.25 8.25 0 0 0 0 0" transform="translate(779.23 11.542) scale(4.7732)"/><path style="fill:#cedc21;fill-opacity:1;fill-rule:nonzero;stroke:none" d="M0 0a8.28 8.28 0 0 0-4.918 14.948l51.294 37.791-49.933 23.699a8.28 8.28 0 0 0-3.931 11.031c1.962 4.132 6.902 5.893 11.031 3.93l62.441-29.633a8.281 8.281 0 0 0 1.361-14.148L4.905 1.614A8.248 8.248 0 0 0 0 0" transform="translate(779.237 245.36) scale(4.7732)"/><path style="fill:#1e7a44;fill-opacity:1;fill-rule:nonzero;stroke:none" d="M0 0v-35.022l23.757 17.503z" transform="translate(818.73 432.08) scale(4.7732)"/><path style="fill:#fff;fill-opacity:1;fill-rule:nonzero;stroke:none;stroke-width:4.77321" d="M818.732 309.48h-79.054v192.69h79.054z"/><path style="fill:#cedc21;fill-opacity:1;fill-rule:nonzero;stroke:none" d="M0 0a8.282 8.282 0 0 1-8.281-8.281v-104.215H8.281V-8.281A8.282 8.282 0 0 1 0 0" transform="translate(779.205 685.445) scale(4.7732)"/></g></svg>